<svg width="16" height="15" viewBox="0 0 16 15" fill="none" xmlns="http://www.w3.org/2000/svg">
<path d="M8.75013 6.5852C8.75013 6.6527 8.51013 6.8852 7.91763 7.0652C7.5118 7.19058 7.08988 7.25627 6.66513 7.2602H6.44763C5.04513 7.2602 4.19763 6.7727 4.19763 6.5777C4.19763 6.3827 5.03013 5.8877 6.44763 5.8877H6.70263H7.01763C7.57326 5.91328 8.113 6.08114 8.58513 6.3752C8.69763 6.5027 8.75013 6.5702 8.75013 6.5852Z" fill="#E2FF9D"/>
<path d="M8.23289 8.14519C8.40933 8.09116 8.58217 8.02603 8.75039 7.9502V8.3777C8.75039 8.4527 8.48789 8.71519 7.79789 8.90269C7.36122 9.01075 6.91272 9.06366 6.46289 9.06019C5.19539 9.06019 4.37789 8.6852 4.21289 8.4152V7.9727C4.92589 8.26792 5.69123 8.41589 6.46289 8.4077H6.73289C7.2421 8.38508 7.74626 8.29685 8.23289 8.14519Z" fill="#E2FF9D"/>
<path d="M8.06789 9.99C8.30133 9.92802 8.52954 9.84777 8.75039 9.75V10.245C8.75039 10.4025 8.00039 10.9275 6.46289 10.9275C4.92539 10.9275 4.21289 10.4025 4.21289 10.245V9.75C4.9254 10.0468 5.69108 10.1949 6.46289 10.185C7.00388 10.1863 7.54296 10.1208 8.06789 9.99Z" fill="#E2FF9D"/>
<path d="M11.8325 4.74744C11.8325 4.92744 11 5.43744 9.5825 5.43744C9.4325 5.43744 9.2825 5.43744 9.1325 5.43744C8.58536 5.11283 7.97329 4.91308 7.34 4.85244C7.31767 4.84344 7.29784 4.82921 7.28218 4.81093C7.26651 4.79266 7.25548 4.77088 7.25 4.74744C7.2875 4.55244 8.1275 4.06494 9.5375 4.06494C10.9475 4.06494 11.795 4.55244 11.8325 4.74744Z" fill="#E2FF9D"/>
<path d="M9.85999 6.54744C10.5376 6.52891 11.2061 6.38657 11.8325 6.12744V6.54744C11.8325 6.72744 11.0825 7.15494 9.85999 7.21494V6.54744Z" fill="#E2FF9D"/>
<path d="M9.85999 8.33992C10.5377 8.32224 11.2064 8.17986 11.8325 7.91992V8.41492C11.8325 8.56492 11.165 9.02242 9.85999 9.08242V8.33992Z" fill="#E2FF9D"/>
<path d="M12.6875 0H3.3125C2.56658 0 1.85121 0.296316 1.32376 0.823762C0.796316 1.35121 0.5 2.06658 0.5 2.8125L0.5 12.1875C0.50198 12.9328 0.798931 13.647 1.32595 14.1741C1.85297 14.7011 2.56719 14.998 3.3125 15H12.6875C13.4328 14.998 14.147 14.7011 14.6741 14.1741C15.2011 13.647 15.498 12.9328 15.5 12.1875V2.8125C15.5 2.06658 15.2037 1.35121 14.6762 0.823762C14.1488 0.296316 13.4334 0 12.6875 0V0ZM12.9575 8.415C12.9575 9.5325 11.4575 10.14 9.86 10.2075V10.245C9.86 11.43 8.1425 12.0525 6.4475 12.0525C4.7525 12.0525 3.0425 11.43 3.0425 10.245V6.585C3.0425 5.4675 4.5425 4.8525 6.1475 4.785C6.1475 2.415 12.965 2.4075 12.965 4.785L12.9575 8.415Z" fill="#E2FF9D"/>
</svg>
