<svg width="145" height="43" viewBox="0 0 145 43" fill="none" xmlns="http://www.w3.org/2000/svg">
<path d="M99.4927 29.4973L116.122 12.1353M116.122 12.1353L99.4927 12.1353M116.122 12.1353V29.4973" stroke="url(#paint0_linear_243_2639)" stroke-width="5.31387" stroke-linecap="round" stroke-linejoin="round"/>
<path d="M0.706055 20.76C0.706055 27.8719 5.31026 32.5994 11.1066 32.5994C14.6831 32.5994 17.2319 30.9551 18.5885 28.8585V29.3107C18.5885 30.9227 19.8952 32.2294 21.5072 32.2294V32.2294C23.1192 32.2294 24.4259 30.9227 24.4259 29.3107V4.72753C24.4259 3.11556 23.1192 1.8088 21.5072 1.8088V1.8088C19.8952 1.8088 18.5885 3.11556 18.5885 4.72754V12.6205C17.0263 10.4828 14.1487 9.08509 11.1477 9.08509C5.31026 9.08509 0.706055 13.6482 0.706055 20.76ZM18.6296 20.8423C18.6296 25.1587 15.7519 27.543 12.5866 27.543C9.50338 27.543 6.58464 25.0765 6.58464 20.76C6.58464 16.4436 9.50338 14.1415 12.5866 14.1415C15.7519 14.1415 18.6296 16.5258 18.6296 20.8423Z" fill="white"/>
<path d="M48.89 12.3532C48.89 10.7526 47.5925 9.45507 45.9918 9.45507V9.45507C44.3912 9.45507 43.0936 10.7526 43.0936 12.3532V21.9933C43.0936 25.652 41.1204 27.6252 37.9961 27.6252C34.9541 27.6252 32.9397 25.652 32.9397 21.9933V12.3327C32.9397 10.7434 31.6514 9.45507 30.0621 9.45507V9.45507C28.4728 9.45507 27.1845 10.7434 27.1845 12.3327V22.8155C27.1845 29.0641 31.0076 32.5172 36.3107 32.5172C39.1472 32.5172 41.6548 31.2839 43.0936 29.3518V29.3518C43.0936 30.9411 44.3922 32.2294 45.9815 32.2294V32.2294C47.5821 32.2294 48.89 30.9319 48.89 29.3313V12.3532Z" fill="white"/>
<path d="M52.0258 20.76C52.0258 27.8719 56.63 32.5994 62.3853 32.5994C66.0029 32.5994 68.5927 30.8728 69.9493 28.8996V29.3313C69.9493 30.9319 71.2469 32.2294 72.8475 32.2294V32.2294C74.4481 32.2294 75.7457 30.9319 75.7457 29.3313V12.3533C75.7457 10.7526 74.4481 9.45507 72.8475 9.45507V9.45507C71.2469 9.45507 69.9493 10.7526 69.9493 12.3533V12.7027C68.5927 10.8117 66.0851 9.08509 62.4264 9.08509C56.63 9.08509 52.0258 13.6482 52.0258 20.76ZM69.9493 20.8423C69.9493 25.1587 67.0717 27.543 63.9063 27.543C60.8231 27.543 57.9044 25.0765 57.9044 20.76C57.9044 16.4436 60.8231 14.1415 63.9063 14.1415C67.0717 14.1415 69.9493 16.5258 69.9493 20.8423Z" fill="white"/>
<path d="M78.7098 29.3518C78.7098 30.9411 79.9981 32.2294 81.5874 32.2294V32.2294C83.1767 32.2294 84.465 30.9411 84.465 29.3518V4.68643C84.465 3.09715 83.1767 1.8088 81.5874 1.8088V1.8088C79.9981 1.8088 78.7098 3.09716 78.7098 4.68643V29.3518Z" fill="white"/>
<path d="M88.0257 29.3518C88.0257 30.9411 89.3141 32.2294 90.9033 32.2294V32.2294C92.4926 32.2294 93.7809 30.9411 93.7809 29.3518V12.3327C93.7809 10.7434 92.4926 9.45507 90.9033 9.45507V9.45507C89.3141 9.45507 88.0257 10.7434 88.0257 12.3327V29.3518ZM90.9444 6.74187C92.9588 6.74187 94.4798 5.26195 94.4798 3.37094C94.4798 1.47992 92.9588 0 90.9444 0C88.889 0 87.4091 1.47992 87.4091 3.37094C87.4091 5.26195 88.889 6.74187 90.9444 6.74187Z" fill="white"/>
<path d="M132.546 25.3642L127.379 11.3817C126.952 10.2239 125.848 9.45507 124.614 9.45507V9.45507C122.516 9.45507 121.089 11.5843 121.886 13.5248L129.34 31.6539L126.108 39.0872C125.304 40.9347 126.658 43 128.673 43V43C129.799 43 130.816 42.3247 131.252 41.2866L143.007 13.3211C143.779 11.4847 142.43 9.45507 140.438 9.45507V9.45507C139.277 9.45507 138.237 10.1759 137.829 11.2638L132.546 25.3642Z" fill="white"/>
<defs>
<linearGradient id="paint0_linear_243_2639" x1="117.498" y1="9.86308" x2="97.1161" y2="31.7011" gradientUnits="userSpaceOnUse">
<stop stop-color="#E2FF9D"/>
<stop offset="1" stop-color="#AAFFBF"/>
</linearGradient>
</defs>
</svg>
