<svg width="16" height="16" viewBox="0 0 16 16" fill="none" xmlns="http://www.w3.org/2000/svg">
<path d="M7.62108 3.64842C8.30631 3.64842 8.86179 3.09293 8.86179 2.4077C8.86179 1.72248 8.30631 1.16699 7.62108 1.16699C6.93585 1.16699 6.38037 1.72248 6.38037 2.4077C6.38037 3.09293 6.93585 3.64842 7.62108 3.64842Z" stroke="currentColor" stroke-opacity="0.5" stroke-width="1.14881" stroke-linecap="round" stroke-linejoin="round"/>
<path d="M1.93085 8.31245C2.25252 7.78399 2.68906 7.33213 3.24049 6.99514C3.83021 6.63518 4.50417 6.43606 5.19346 6.32884C6.31163 6.16801 7.43746 6.20629 8.56329 6.25225C8.6169 6.25225 8.66287 6.2599 8.71648 6.2599C9.00751 6.2982 9.24493 6.23693 9.50533 6.06078C10.2712 5.5553 11.1443 5.3715 12.0787 5.41745C12.2855 5.42511 12.4156 5.49403 12.4769 5.60125C12.5458 5.73911 12.4616 5.90761 12.4233 5.99185C12.2701 6.31352 12.0863 6.75772 11.8566 7.36276C11.9714 7.52359 12.1323 7.73804 12.3391 7.98312C12.4157 8.07502 12.7143 8.42732 12.9747 8.66474C13.2198 8.88685 13.71 9.26979 14.5601 9.5455C14.5524 10.2807 14.5448 11.0083 14.5371 11.7436C14.3456 11.7895 14.0623 11.8814 13.7636 12.0652C13.1662 12.4405 13.0513 12.877 12.5918 13.2753C12.3314 13.5051 11.8949 13.7731 11.1826 13.8803C11.0524 14.0259 10.8839 14.2403 10.746 14.5237C10.6005 14.8377 10.5393 15.1134 10.5086 15.3125C9.83465 15.3125 9.16834 15.3125 8.49437 15.3125C8.4331 15.2053 8.37184 15.0904 8.31057 14.9679C8.25695 14.8607 8.20334 14.7534 8.16505 14.6462C7.38386 14.6462 6.60267 14.6462 5.82148 14.6462C5.77553 14.7305 5.72957 14.8224 5.67596 14.9219C5.60703 15.0598 5.55342 15.1976 5.50747 15.3202C4.8335 15.3125 4.16719 15.3125 3.49322 15.3049C3.45492 15.2513 3.39367 15.167 3.34006 15.0521C3.17922 14.7305 3.20984 14.4777 3.13326 14.2786C3.01838 13.9952 2.88819 13.7119 2.68906 13.4744C1.95382 12.586 1.34877 11.5597 1.33345 10.4186C1.32579 9.70634 1.54026 8.95578 1.93085 8.31245Z" stroke="currentColor" stroke-width="1.14881" stroke-linecap="round" stroke-linejoin="round"/>
<path d="M6.36511 8.62646H8.88484" stroke="currentColor" stroke-opacity="0.59" stroke-width="1.14881" stroke-linecap="round" stroke-linejoin="round"/>
</svg>
