<svg width="12" height="12" viewBox="0 0 12 12" fill="none" xmlns="http://www.w3.org/2000/svg">
    <path d="M6.0002 -0.00854492C9.31874 -0.00854492 12.0087 2.68141 12.0087 5.99995C12.0087 9.31849 9.31874 12.0085 6.0002 12.0085C2.68166 12.0085 -0.00830078 9.31849 -0.00830078 5.99995C-0.00830078 2.68141 2.68166 -0.00854492 6.0002 -0.00854492ZM6.0002 1.1931C3.34552 1.1931 1.19324 3.34522 1.19324 6.00006C1.19324 8.65489 3.34536 10.807 6.0002 10.807C8.65503 10.807 10.8071 8.65489 10.8071 6.00006C10.8071 3.34522 8.65503 1.1931 6.0002 1.1931ZM6.0002 4.79825C6.30831 4.79825 6.56229 4.93355 6.597 5.10786L6.60103 5.1488V8.65378C6.60103 8.84741 6.33206 9.00433 6.0002 9.00433C5.69209 9.00433 5.43811 8.86903 5.4034 8.69472L5.39937 8.65378V5.1488C5.39937 4.95517 5.66834 4.79825 6.0002 4.79825ZM6.0002 2.99568C6.33205 2.99568 6.60102 3.26475 6.60102 3.59661C6.60102 3.92846 6.33205 4.19743 6.0002 4.19743C5.66834 4.19743 5.39937 3.92846 5.39937 3.59661C5.39937 3.26475 5.66834 2.99568 6.0002 2.99568Z" fill="white"/>
</svg>
