<svg width="20" height="15" viewBox="0 0 20 15" fill="none" xmlns="http://www.w3.org/2000/svg">
<path d="M18.9282 0.500205H6.54714C6.06818 0.500205 5.65545 0.841754 5.56594 1.31221L4.10587 8.97422L3.41871 6.35445C3.30356 5.91555 2.90625 5.60887 2.4525 5.60887L0.998888 5.60901C0.448194 5.60901 0 6.05703 0 6.6079C0 7.15874 0.448158 7.60679 0.998888 7.60679H1.68185L3.29405 13.7539C3.40921 14.1928 3.80637 14.4995 4.26001 14.4993C4.27136 14.4993 4.28299 14.4992 4.29434 14.4988C4.76409 14.4828 5.15368 14.1491 5.24151 13.6875L7.3736 2.49788H18.9279C19.4788 2.49788 19.9268 2.04973 19.9268 1.499C19.927 0.948015 19.4788 0.5 18.9281 0.5L18.9282 0.500205Z" fill="currentColor"/>
<path d="M17.8099 5.29629C17.3207 4.80693 16.5242 4.80682 16.0346 5.29615L13.3918 7.93891L10.7491 5.29615C10.2597 4.80679 9.46343 4.80693 8.97396 5.29629C8.48459 5.78566 8.48459 6.58209 8.97396 7.07142L11.6167 9.71418L8.97396 12.3569C8.48459 12.8463 8.48459 13.6427 8.97396 14.1321C9.21114 14.3691 9.52619 14.4997 9.8616 14.4997C10.1968 14.4997 10.5121 14.3691 10.7492 14.1321L13.392 11.4893L16.0349 14.1321C16.272 14.3691 16.5871 14.4997 16.9223 14.4997C17.2576 14.4997 17.5728 14.3691 17.81 14.1321C18.2994 13.6427 18.2994 12.8463 17.81 12.3569L15.1672 9.71418L17.81 7.07142C18.2991 6.58195 18.2991 5.78562 17.8098 5.29629H17.8099Z" fill="currentColor"/>
</svg>
