<svg width="211" height="63" viewBox="0 0 211 63" fill="none" xmlns="http://www.w3.org/2000/svg">
<path d="M144.481 43.1418L168.804 17.7488M168.804 17.7488H144.481M168.804 17.7488V43.1418" stroke="url(#paint0_linear_243_2591)" stroke-width="7.77186" stroke-linecap="round" stroke-linejoin="round"/>
<path d="M0 30.3628C0 40.7644 6.73393 47.6787 15.2115 47.6787C20.4423 47.6787 24.17 45.2737 26.1541 42.2073V42.8687C26.1541 45.2263 28.0653 47.1375 30.423 47.1375V47.1375C32.7806 47.1375 34.6918 45.2263 34.6918 42.8687V6.9143C34.6918 4.55669 32.7806 2.64548 30.423 2.64548V2.64548C28.0653 2.64548 26.1541 4.5567 26.1541 6.91431V18.4582C23.8694 15.3317 19.6607 13.2875 15.2716 13.2875C6.73393 13.2875 0 19.9613 0 30.3628ZM26.2142 30.4831C26.2142 36.7961 22.0055 40.2834 17.376 40.2834C12.8666 40.2834 8.59779 36.6759 8.59779 30.3628C8.59779 24.0498 12.8666 20.6828 17.376 20.6828C22.0055 20.6828 26.2142 24.17 26.2142 30.4831Z" fill="white"/>
<path d="M70.472 18.0674C70.472 15.7264 68.5742 13.8286 66.2332 13.8286V13.8286C63.8922 13.8286 61.9945 15.7264 61.9945 18.0674V32.1666C61.9945 37.5176 59.1085 40.4036 54.539 40.4036C50.0898 40.4036 47.1437 37.5176 47.1437 32.1666V18.0373C47.1437 15.7129 45.2594 13.8286 42.935 13.8286V13.8286C40.6106 13.8286 38.7263 15.7129 38.7263 18.0373V33.369C38.7263 42.508 44.3179 47.5584 52.0739 47.5584C56.2225 47.5584 59.8901 45.7547 61.9945 42.9288V42.9288C61.9945 45.2532 63.8937 47.1375 66.2181 47.1375V47.1375C68.5591 47.1375 70.472 45.2398 70.472 42.8988V18.0674Z" fill="white"/>
<path d="M75.0583 30.3628C75.0583 40.7644 81.7922 47.6787 90.2097 47.6787C95.5006 47.6787 99.2884 45.1534 101.273 42.2675V42.8988C101.273 45.2398 103.17 47.1375 105.511 47.1375V47.1375C107.852 47.1375 109.75 45.2398 109.75 42.8988V18.0674C109.75 15.7264 107.852 13.8286 105.511 13.8286V13.8286C103.17 13.8286 101.273 15.7264 101.273 18.0674V18.5784C99.2884 15.8127 95.6208 13.2875 90.2698 13.2875C81.7922 13.2875 75.0583 19.9613 75.0583 30.3628ZM101.273 30.4831C101.273 36.7961 97.0638 40.2834 92.4343 40.2834C87.9249 40.2834 83.6561 36.6759 83.6561 30.3628C83.6561 24.0498 87.9249 20.6828 92.4343 20.6828C97.0638 20.6828 101.273 24.17 101.273 30.4831Z" fill="white"/>
<path d="M114.085 42.9288C114.085 45.2532 115.97 47.1375 118.294 47.1375V47.1375C120.618 47.1375 122.503 45.2532 122.503 42.9288V6.85419C122.503 4.52978 120.618 2.64548 118.294 2.64548V2.64548C115.97 2.64548 114.085 4.52978 114.085 6.85419V42.9288Z" fill="white"/>
<path d="M127.71 42.9288C127.71 45.2532 129.595 47.1375 131.919 47.1375V47.1375C134.243 47.1375 136.128 45.2532 136.128 42.9288V18.0373C136.128 15.7129 134.243 13.8286 131.919 13.8286V13.8286C129.595 13.8286 127.71 15.7129 127.71 18.0373V42.9288ZM131.979 9.86041C134.925 9.86041 137.15 7.69593 137.15 4.9302C137.15 2.16448 134.925 0 131.979 0C128.973 0 126.808 2.16448 126.808 4.9302C126.808 7.69593 128.973 9.86041 131.979 9.86041Z" fill="white"/>
<path d="M192.824 37.0968L185.267 16.6464C184.642 14.953 183.028 13.8286 181.222 13.8286V13.8286C178.154 13.8286 176.067 16.9428 177.234 19.7808L188.134 46.2958L183.408 57.1674C182.233 59.8696 184.213 62.8901 187.16 62.8901V62.8901C188.807 62.8901 190.293 61.9025 190.931 60.3842L208.124 19.483C209.253 16.7971 207.281 13.8286 204.367 13.8286V13.8286C202.668 13.8286 201.147 14.8829 200.551 16.474L192.824 37.0968Z" fill="white"/>
<defs>
<linearGradient id="paint0_linear_243_2591" x1="170.816" y1="14.4256" x2="141.006" y2="46.365" gradientUnits="userSpaceOnUse">
<stop stop-color="#E2FF9D"/>
<stop offset="1" stop-color="#AAFFBF"/>
</linearGradient>
</defs>
</svg>
