<svg width="20" height="20" viewBox="0 0 20 20" fill="none" xmlns="http://www.w3.org/2000/svg">
<path d="M8.3335 16.6667H11.6668C11.6668 17.5872 10.9206 18.3334 10.0002 18.3334C9.07969 18.3334 8.3335 17.5872 8.3335 16.6667Z" fill="white"/>
<path d="M10.8368 3.33325H9.1628L8.30749 3.64093C6.32312 4.35477 4.99996 6.23691 4.99996 8.34578V11.1127C4.99996 11.7242 4.71246 12.3 4.22374 12.6675C2.5176 13.9503 3.42484 16.6666 5.55944 16.6666H14.4404C16.575 16.6666 17.4823 13.9503 15.7762 12.6675C15.2874 12.3001 15 11.7242 15 11.1128V8.34587C15 6.23695 13.6767 4.35477 11.6923 3.64097L10.8368 3.33325Z" fill="white" fill-opacity="0.25"/>
<path d="M9.1665 2.50008C9.1665 2.03984 9.5396 1.66675 9.99984 1.66675C10.4601 1.66675 10.8332 2.03984 10.8332 2.50008V3.33341H9.1665V2.50008Z" fill="white"/>
</svg>
