<svg width="20" height="20" viewBox="0 0 20 20" fill="none" xmlns="http://www.w3.org/2000/svg">
<path d="M3.3335 17.5001C3.3335 17.0398 3.70659 16.6667 4.16683 16.6667H15.8335C16.2937 16.6667 16.6668 17.0398 16.6668 17.5001C16.6668 17.9603 16.2937 18.3334 15.8335 18.3334H4.16683C3.70659 18.3334 3.3335 17.9603 3.3335 17.5001Z" fill="white" fill-opacity="0.25"/>
<path d="M11.424 2.39775C12.4004 1.42145 13.9833 1.42145 14.9596 2.39776L15.9359 3.37407C16.9122 4.35039 16.9122 5.93331 15.9359 6.90962L15.5894 7.25605L11.0776 2.7442L11.424 2.39775Z" fill="white"/>
<path d="M4.83094 8.99756C4.71658 9.13397 4.63238 9.29357 4.58448 9.46589L3.36999 13.8349C3.17896 14.5221 3.81145 15.1546 4.49868 14.9636L8.86767 13.7491C9.03999 13.7012 9.1996 13.617 9.336 13.5026L4.83094 8.99756Z" fill="white"/>
<path d="M15.5895 7.25599L11.0777 2.74414L4.90505 8.91672C4.87915 8.94261 4.85447 8.96957 4.83105 8.9975L9.33611 13.5026C9.36404 13.4791 9.39099 13.4545 9.41688 13.4286L15.5895 7.25599Z" fill="white" fill-opacity="0.25"/>
</svg>
