<svg width="20" height="20" viewBox="0 0 20 20" fill="none" xmlns="http://www.w3.org/2000/svg">
<path d="M18.3332 10.0001C18.3332 14.6025 14.6022 18.3334 9.99984 18.3334C5.39746 18.3334 1.6665 14.6025 1.6665 10.0001C1.6665 5.39771 5.39746 1.66675 9.99984 1.66675C14.6022 1.66675 18.3332 5.39771 18.3332 10.0001Z" fill="white" fill-opacity="0.25"/>
<path fill-rule="evenodd" clip-rule="evenodd" d="M4.98033 9.16675H1.6665V10.8334H4.98033C5.10684 13.8716 5.91808 16.0589 6.8664 17.534C6.92754 17.6291 6.98926 17.7213 7.05142 17.8106C7.95784 18.1486 8.93895 18.3334 9.96322 18.3334L9.98151 18.3334L9.99981 18.3334C11.0241 18.3334 12.0052 18.1486 12.9116 17.8106C12.9738 17.7213 13.0355 17.6291 13.0966 17.534C14.0449 16.0589 14.8562 13.8716 14.9827 10.8334H18.3332V9.16675H14.9827C14.8562 6.12859 14.0449 3.94127 13.0966 2.46612C13.0355 2.37101 12.9738 2.27885 12.9116 2.1896C12.0052 1.85154 11.0241 1.66675 9.99981 1.66675L9.98151 1.66679L9.96322 1.66675C8.93895 1.66675 7.95785 1.85154 7.05142 2.1896C6.98926 2.27885 6.92754 2.37101 6.8664 2.46612C5.91808 3.94127 5.10684 6.12859 4.98033 9.16675ZM6.64857 9.16675C6.77313 6.43323 7.5018 4.55981 8.26836 3.36738C8.69167 2.7089 9.12564 2.25909 9.47634 1.98278C9.65238 1.84409 9.79857 1.75606 9.9032 1.70624C9.93809 1.68963 9.96402 1.67929 9.98151 1.673C9.99901 1.67929 10.0249 1.68963 10.0598 1.70624C10.1645 1.75606 10.3106 1.84409 10.4867 1.98278C10.8374 2.25909 11.2714 2.7089 11.6947 3.36738C12.4612 4.55981 13.1899 6.43323 13.3145 9.16675H6.64857ZM13.3145 10.8334C13.1899 13.5669 12.4612 15.4404 11.6947 16.6328C11.2714 17.2913 10.8374 17.7411 10.4867 18.0174C10.3106 18.1561 10.1645 18.2441 10.0598 18.2939C10.0249 18.3105 9.999 18.3209 9.98151 18.3272C9.96402 18.3209 9.93809 18.3105 9.9032 18.2939C9.79857 18.2441 9.65238 18.1561 9.47634 18.0174C9.12564 17.7411 8.69167 17.2913 8.26836 16.6328C7.5018 15.4404 6.77313 13.5669 6.64857 10.8334H13.3145Z" fill="white"/>
</svg>
