<svg width="20" height="20" viewBox="0 0 20 20" fill="none" xmlns="http://www.w3.org/2000/svg">
<path d="M8.3335 5.96788V14.0321C8.33348 14.4714 8.33347 14.8504 8.35897 15.1625C8.38589 15.492 8.44532 15.8197 8.60598 16.135C8.84567 16.6054 9.22812 16.9878 9.69852 17.2275C10.0138 17.3882 10.3415 17.4476 10.671 17.4745C10.9831 17.5 11.3621 17.5 11.8014 17.5H14.0323C14.4716 17.5 14.8505 17.5 15.1627 17.4745C15.4921 17.4476 15.8198 17.3882 16.1351 17.2275C16.6055 16.9878 16.988 16.6054 17.2277 16.135C17.3883 15.8197 17.4478 15.492 17.4747 15.1625C17.5002 14.8504 17.5002 14.4714 17.5002 14.0321V5.9679C17.5002 5.52861 17.5002 5.14962 17.4747 4.83748C17.4478 4.50802 17.3883 4.18034 17.2277 3.86503C16.988 3.39462 16.6055 3.01217 16.1351 2.77249C15.8198 2.61182 15.4921 2.55239 15.1627 2.52548C14.8506 2.49997 14.4716 2.49999 14.0323 2.5H11.8014C11.3621 2.49999 10.9831 2.49997 10.671 2.52548C10.3415 2.55239 10.0138 2.61182 9.69852 2.77249C9.22812 3.01217 8.84567 3.39462 8.60598 3.86502C8.44532 4.18034 8.38589 4.50802 8.35897 4.83748C8.33347 5.14961 8.33348 5.52861 8.3335 5.96788Z" fill="white" fill-opacity="0.25"/>
<path d="M6.42259 11.9108C6.74803 12.2363 6.74803 12.7639 6.42259 13.0893C6.09715 13.4148 5.56951 13.4148 5.24408 13.0893L2.74408 10.5893C2.41864 10.2639 2.41864 9.73626 2.74408 9.41083L5.24408 6.91083C5.56951 6.58539 6.09715 6.58539 6.42259 6.91083C6.74803 7.23626 6.74803 7.7639 6.42259 8.08934L5.34518 9.16675H12.5C12.9602 9.16675 13.3333 9.53984 13.3333 10.0001C13.3333 10.4603 12.9602 10.8334 12.5 10.8334H5.34518L6.42259 11.9108Z" fill="white"/>
</svg>
