<svg width="20" height="20" viewBox="0 0 20 20" fill="none" xmlns="http://www.w3.org/2000/svg">
<path fill-rule="evenodd" clip-rule="evenodd" d="M8.33323 2.91675C8.33323 2.22639 8.89287 1.66675 9.58323 1.66675H10.4166C11.1069 1.66675 11.6666 2.22639 11.6666 2.91675V3.22046C11.6666 3.41057 11.7957 3.57526 11.9773 3.63158C12.3698 3.75331 12.7467 3.91032 13.1044 4.0989C13.2726 4.18758 13.4804 4.16245 13.6149 4.028L13.83 3.8129C14.3182 3.32474 15.1096 3.32474 15.5978 3.8129L16.187 4.40215C16.6752 4.89031 16.6752 5.68176 16.187 6.16992L15.9719 6.38502C15.8375 6.51948 15.8123 6.72728 15.901 6.89549C16.0896 7.25323 16.2466 7.6302 16.3684 8.02269C16.4247 8.20427 16.5894 8.33342 16.7795 8.33342H17.0832C17.7735 8.33342 18.3332 8.89306 18.3332 9.58342V10.4167C18.3332 11.1071 17.7735 11.6667 17.0832 11.6667H16.7795C16.5894 11.6667 16.4247 11.7959 16.3684 11.9775C16.2466 12.37 16.0896 12.7469 15.901 13.1047C15.8123 13.2729 15.8375 13.4807 15.9719 13.6151L16.187 13.8302C16.6752 14.3184 16.6752 15.1099 16.187 15.598L15.5978 16.1873C15.1096 16.6754 14.3182 16.6754 13.83 16.1873L13.6149 15.9722C13.4804 15.8377 13.2726 15.8126 13.1044 15.9013C12.7467 16.0898 12.3698 16.2469 11.9773 16.3686C11.7957 16.4249 11.6666 16.5896 11.6666 16.7797V17.0834C11.6666 17.7738 11.1069 18.3334 10.4166 18.3334H9.58323C8.89287 18.3334 8.33323 17.7738 8.33323 17.0834V16.7797C8.33323 16.5896 8.20408 16.4249 8.0225 16.3686C7.62999 16.2469 7.253 16.0899 6.89525 15.9013C6.72704 15.8126 6.51923 15.8377 6.38477 15.9722L6.16968 16.1873C5.68152 16.6754 4.89006 16.6754 4.40191 16.1873L3.81265 15.598C3.3245 15.1099 3.3245 14.3184 3.81265 13.8302L4.02775 13.6151C4.16221 13.4807 4.18734 13.2729 4.09866 13.1047C3.91007 12.7469 3.75305 12.37 3.63132 11.9775C3.575 11.7959 3.41031 11.6667 3.2202 11.6667H2.9165C2.22615 11.6667 1.6665 11.1071 1.6665 10.4167V9.58341C1.6665 8.89306 2.22615 8.33341 2.9165 8.33341H3.2202C3.41031 8.33341 3.575 8.20427 3.63132 8.02269C3.75305 7.6302 3.91007 7.25323 4.09866 6.89549C4.18734 6.72728 4.16221 6.51948 4.02775 6.38502L3.81265 6.16992C3.3245 5.68176 3.3245 4.89031 3.81265 4.40215L4.40191 3.8129C4.89006 3.32474 5.68152 3.32474 6.16968 3.8129L6.38478 4.028C6.51923 4.16245 6.72704 4.18758 6.89525 4.0989C7.253 3.9103 7.62999 3.75328 8.0225 3.63154C8.20408 3.57523 8.33323 3.41054 8.33323 3.22042V2.91675Z" fill="white" fill-opacity="0.25"/>
<path d="M12.5 10C12.5 11.3807 11.3807 12.5 10 12.5C8.61929 12.5 7.5 11.3807 7.5 10C7.5 8.61929 8.61929 7.5 10 7.5C11.3807 7.5 12.5 8.61929 12.5 10Z" fill="white"/>
</svg>
