<svg width="20" height="20" viewBox="0 0 20 20" fill="none" xmlns="http://www.w3.org/2000/svg">
<path d="M7.76398 3.88285C8.68515 2.03969 11.3154 2.0397 12.2365 3.88287L17.2339 13.8823C18.0646 15.5445 16.8559 17.4999 14.9976 17.4999H5.00274C3.14448 17.4999 1.93572 15.5445 2.76647 13.8822L7.76398 3.88285Z" fill="white" fill-opacity="0.25"/>
<path d="M9.99984 6.66675C9.5396 6.66675 9.1665 7.03984 9.1665 7.50008V10.8334C9.1665 11.2937 9.5396 11.6667 9.99984 11.6667C10.4601 11.6667 10.8332 11.2937 10.8332 10.8334V7.50008C10.8332 7.03984 10.4601 6.66675 9.99984 6.66675Z" fill="white"/>
<path d="M9.99984 12.5001C9.5396 12.5001 9.1665 12.8732 9.1665 13.3334C9.1665 13.7937 9.5396 14.1667 9.99984 14.1667C10.4601 14.1667 10.8332 13.7937 10.8332 13.3334C10.8332 12.8732 10.4601 12.5001 9.99984 12.5001Z" fill="white"/>
</svg>
